<svg xmlns="http://www.w3.org/2000/svg" data-name="图层 1" viewBox="0 0 180.33 199.13"><path d="M126.13.43c9.16-.84 18.9-.85 27.2 3.67 14.39 6.26 24.77 20.48 26.79 36 .23 6.41.7 13.07-1.47 19.24a55.14 55.14 0 01-5.86 12.69c-3.07 4.92-7.65 8.58-11.59 12.74q-36.81 36.76-73.55 73.61c-4.67 4.65-9.29 9.71-15.63 12.05-5 2.35-10.62 2.48-16.07 2.21-13.41-1.11-25.16-11.51-28.51-24.39-3.14-10.91.25-23.06 7.77-31.39q18.73-18.73 37.4-37.44c2.19-2.37 6-3.49 8.9-1.83 3.87 1.9 5 7.92 1.82 10.91-12.63 12.88-25.79 25.26-38.11 38.41-4.63 4.71-5.91 11.94-4.35 18.2 2.28 6.54 8 12.24 15.06 13.12 3.75.35 7.68.31 11.2-1.2 3.94-1.59 6.69-5 9.62-7.87 26.58-26.42 52.79-53.18 79.38-79.57a32.52 32.52 0 0010.17-21.1c1.24-16.74-12.46-33.67-29.62-34.17a31.8 31.8 0 00-24.83 8.46c-28.57 28.35-56.7 57.11-85.26 85.46-6.77 6.68-10.64 15.89-12.05 25.16-2.25 15.9 4.67 32.86 17.72 42.32a45.1 45.1 0 0029.62 9.32c12.64-.51 24.46-7 32.93-16.18 10.28-10.43 20.73-20.73 31.02-31.18 1.65-1.64 3.18-3.51 5.31-4.54a10.63 10.63 0 016.62.25c2.61 1.07 3.5 4.17 3.41 6.76-.31 2.6-2.21 4.59-4 6.32q-6.42 6.21-12.55 12.68c-8.58 7.95-16.61 16.47-25 24.63a58 58 0 01-33.89 14.93c-9.42 1.3-19-.58-27.88-3.65a48.48 48.48 0 01-10.31-5.46c-8-4.72-14.15-11.9-19.19-19.47-5.26-9.35-8.65-20-8.33-30.8-.25-10.77 3.21-21.31 8.53-30.57 4.87-8.07 12-14.38 18.55-21 24.44-24.63 49.26-48.88 73.65-73.54A45.26 45.26 0 01126.13.43z" fill="#fff"/></svg>